<svg width="694" height="480" viewBox="0 0 694 480" fill="none" xmlns="http://www.w3.org/2000/svg">
<g clip-path="url(#clip0_74_764)">
<path d="M787.591 -9H-93.5V489.13H787.591V-9Z" fill="#1A3129"/>
<path d="M277.791 120.975L259.157 140.716L238.679 133.059L237.203 136.934L260.264 145.559L280.789 123.789L277.791 120.975ZM427.184 161.287L400.986 177.66L403.2 181.166L429.398 164.792L427.184 161.287ZM277.791 120.975L259.157 140.716L238.679 133.059L237.203 136.934L260.264 145.559L280.789 123.789L277.791 120.975ZM427.184 161.287L400.986 177.66L403.2 181.166L429.398 164.792L427.184 161.287ZM277.791 120.975L259.157 140.716L238.679 133.059L237.203 136.934L260.264 145.559L280.789 123.789L277.791 120.975ZM427.184 161.287L400.986 177.66L403.2 181.166L429.398 164.792L427.184 161.287ZM277.791 120.975L259.157 140.716L238.679 133.059L237.203 136.934L260.264 145.559L280.789 123.789L277.791 120.975ZM427.184 161.287L400.986 177.66L403.2 181.166L429.398 164.792L427.184 161.287ZM277.791 120.975L259.157 140.716L238.679 133.059L237.203 136.934L260.264 145.559L280.789 123.789L277.791 120.975ZM427.184 161.287L400.986 177.66L403.2 181.166L429.398 164.792L427.184 161.287ZM277.791 120.975L259.157 140.716L238.679 133.059L237.203 136.934L260.264 145.559L280.789 123.789L277.791 120.975ZM427.184 161.287L400.986 177.66L403.2 181.166L429.398 164.792L427.184 161.287ZM277.791 120.975L259.157 140.716L238.679 133.059L237.203 136.934L260.264 145.559L280.789 123.789L277.791 120.975ZM427.184 161.287L400.986 177.66L403.2 181.166L429.398 164.792L427.184 161.287ZM277.791 120.975L259.157 140.716L238.679 133.059L237.203 136.934L260.264 145.559L280.789 123.789L277.791 120.975ZM427.184 161.287L400.986 177.66L403.2 181.166L429.398 164.792L427.184 161.287ZM548.211 110.367L570.765 79.4642L593.965 54.6961L596.087 56.8177V43.3037L566.061 75.3131L565.922 75.4515L546.043 102.71L531.284 88.1354L580.451 37.4921L577.453 34.5864L525.473 88.1815L543.599 106.077L510.621 134.674L498.168 114.518L498.998 92.6093L492.679 79.7871L486.176 66.5497L510.713 27.714L507.208 25.5001L481.425 66.3191L486.083 75.7744L416.161 33.0182C438.161 24.5315 458.917 16.3677 459.147 16.2755L457.625 12.4011C457.395 12.4934 433.457 21.9025 409.75 31.0349C375.803 44.0416 365.84 47.3164 362.981 48.1005L352.649 30.6659L415.423 11.5248L414.224 7.55821L350.481 27.0222L329.126 -9H325.344L324.56 -8.53877L346.976 29.2361C342.133 34.7247 324.422 54.7883 323.13 56.4949C321.793 58.2476 292.182 103.125 287.385 110.367C266.537 96.253 240.385 95.6073 238.909 95.5612H238.633L238.356 95.6534C236.972 96.0224 204.455 104.694 190.388 117.193C186.744 120.422 178.073 121.021 165.943 118.853L170.647 85.7831L197.076 -5.58689L190.111 -7.61631L163.59 83.9843L158.793 117.331C138.038 112.396 117.144 102.572 115.622 99.5739C113.962 95.7918 105.475 80.9863 97.957 68.164V76.4201C104.322 87.3974 110.503 98.1902 111.794 101.234C114.239 106.907 139.191 117.008 158.194 121.482L157.318 127.663C136.424 122.774 115.299 112.857 113.777 109.813C112.255 106.308 104.968 93.5779 97.957 81.5397V89.7958C103.63 99.62 108.796 108.706 109.949 111.428C112.44 117.147 137.715 127.34 156.718 131.768L153.72 152.754L165.666 186.424L164.236 220.232L150.722 240.25C142.696 252.195 133.426 265.848 124.247 279.454L115.668 267.047L98.0032 255.332V264.049L110.503 272.351L119.912 285.911C112.163 297.304 104.645 308.419 98.0032 318.059V330.928C103.4 323.087 110.503 312.663 119.912 298.78C121.618 296.243 123.371 293.706 125.077 291.169L174.199 329.221L200.489 372.023C195.277 377.65 190.434 382.955 186.144 387.659C184.115 389.919 182.132 392.087 180.287 394.07L145.787 354.266L145.602 354.081L118.343 335.54L107.412 350.161L110.733 352.652L119.312 341.213L132.18 349.976L121.019 358.509L123.555 361.83L135.824 352.467L142.835 357.264L144.08 358.74L124.293 370.594L126.415 374.145L146.848 361.922L177.473 397.253C174.245 400.712 171.708 403.295 170.463 404.31C161.007 411.735 133.241 427.509 132.965 427.648L137.577 435.766C138.73 435.12 166.265 419.484 176.228 411.643C179.134 409.383 184.669 403.249 193.063 394.024C196.707 390.011 200.95 385.353 205.562 380.372L230.607 421.145L238.817 427.602C217.739 440.562 202.887 449.879 202.241 450.756L205.562 453.246C205.47 453.338 205.424 453.431 205.378 453.477C206.808 452.278 222.028 442.822 242.322 430.323L263.631 447.112L270.089 461.963L273.917 460.303L270.55 452.554L309.708 483.365L314.228 477.645L264.415 438.487L257.405 422.344L256.805 421.467C276.039 409.66 297.67 396.515 316.073 385.307L320.916 404.033L378.294 486.685L384.29 482.534L363.119 452.001L400.433 430L422.941 418.423L430.09 459.427C426.584 460.857 417.729 464.408 408.873 468.19C385.074 478.429 384.797 479.952 384.52 481.427L388.625 482.165C388.533 482.581 388.348 482.811 388.348 482.811C390.286 480.643 411.041 471.557 430.828 463.624L435.256 489.084H439.499L434.841 462.425L454.581 458.827L470.955 436.965L545.213 456.613L546.274 452.6L472.938 433.183L495.308 376.82L503.241 378.25L596.179 422.298V417.685L504.533 374.237L496.876 372.854L507.761 345.503C536.311 363.906 579.806 388.904 596.225 398.221V393.424C571.365 379.219 499.459 337.708 486.545 325.208C499.736 332.404 510.575 337.846 518.554 340.89C545.444 357.771 580.451 377.881 596.225 386.921V382.124C581.881 373.914 554.945 358.371 531.33 343.934C535.251 344.303 539.309 344.765 543.23 345.226C561.126 347.301 578.007 349.285 587.831 342.458C589.768 341.121 592.674 338.815 596.179 335.909V323.686C590.229 328.806 585.202 332.911 582.481 334.802C575.562 339.599 559.65 337.754 544.291 335.955C539.402 335.402 534.328 334.802 529.439 334.433C523.443 333.972 507.853 326.269 489.958 316.491C488.851 315.569 488.021 314.738 487.375 314.047C478.796 304.361 445.818 267.831 420.542 241.541C424.094 240.065 426.861 239.05 428.476 238.727C433.872 237.713 464.313 244.862 488.759 250.581C539.909 262.619 564.769 267.831 571.965 263.911C574.317 262.665 579.667 259.391 586.816 255.009L596.133 263.818V258.099L590.506 252.749C592.305 251.642 594.196 250.489 596.133 249.244V238.22C591.567 241.08 587.278 243.709 583.495 246.061L531.469 196.709L568.782 155.06C577.822 163.085 587.185 171.388 596.133 179.367V173.786C587.6 166.222 579.16 158.658 571.596 151.97L596.133 124.573V118.346L568.459 149.202C561.31 142.884 555.176 137.441 550.886 133.613L549.41 132.321L507.254 173.786L491.849 159.165L547.981 110.505L548.211 110.367ZM489.45 82.6467L494.801 93.4856L494.063 114.149L467.772 138.871L484.377 157.505L468.833 170.973L468.234 171.48L460.669 178.029L460.393 178.26L460.3 178.721L456.934 197.355L455.734 198.047L413.024 128.355L406.429 110.92L395.959 103.679L383.874 83.2924L446.095 56.0798L489.45 82.6467ZM408.32 247.168C422.157 261.282 440.006 280.515 454.904 296.796C452.091 295.182 449.323 293.568 446.648 292.046C415.423 273.966 395.913 262.85 388.81 261.558C386.411 261.143 383.505 261.097 380.185 261.42C390.286 256.116 400.11 251.088 408.32 247.168ZM339.873 283.329L355.14 291.354L393.422 298.272L397.25 304.499L314.321 294.813C323.223 290.478 331.801 286.649 339.873 283.329ZM405.875 226.782C399.556 220.555 394.575 215.989 391.854 214.236C382.768 208.24 356.708 186.701 334.477 164.146L413.716 137.579L452.091 200.168L405.875 226.782ZM389.594 217.649C393.007 219.909 400.34 226.92 409.519 236.237C408.181 236.883 406.752 237.528 405.322 238.22C398.403 231.348 392.915 226.32 390.055 224.383C380 217.741 349.144 192.097 325.667 167.006L330.141 165.484C352.972 188.914 380.185 211.469 389.594 217.649ZM252.792 236.514L255.652 245.508L291.259 296.012C287.938 297.765 284.71 299.518 281.481 301.317C278.022 303.208 274.516 305.422 270.965 307.774C266.768 300.855 252.654 275.672 236.834 247.306L252.792 236.514ZM337.705 273.735C336.737 274.288 335.953 274.703 335.399 275.026C327.558 278.301 319.44 281.945 311.277 285.911L298.869 267.278L318.287 249.059L337.705 273.735ZM321.331 246.246L322.162 245.461L322.3 245.323L355.555 201.644C369.576 214.144 382.03 224.106 387.795 227.888C390.378 229.595 395.221 234.023 401.401 240.157C380.646 250.258 353.848 264.833 341.441 271.705L321.331 246.246ZM296.517 263.772L291.72 256.577L311.599 240.572L315.704 245.784L296.517 263.772ZM289.645 252.887L274.701 221.708L289.045 212.022L308.97 237.298L289.645 252.887ZM287.108 257.177L307.495 287.664C304.22 289.278 300.991 290.893 297.763 292.553L262.248 242.187L259.065 232.224L271.242 224.014L287.108 257.177ZM352.372 198.877L319.118 242.556L318.702 242.971L279.406 193.158L321.562 168.759C331.202 179.09 342.133 189.606 352.372 198.877ZM286.462 208.794L272.902 217.926L255.375 181.396L260.633 176L286.462 208.794ZM250.348 180.566L269.397 220.278L257.728 228.165L256.113 223.046L223.504 183.426C226.272 181.811 226.41 181.027 226.502 180.428C226.871 178.491 228.624 163.777 228.947 161.102L250.948 163.777L258.004 172.725L250.348 180.566ZM222.536 179.229C222.213 179.459 221.613 179.828 220.875 180.197L202.518 157.874L224.888 160.595C224.288 165.392 222.951 176.415 222.536 179.229ZM249.61 226.597L251.455 232.409L234.804 243.617C224.934 225.859 214.556 207.133 205.655 190.99C210.359 189.283 213.957 187.854 216.77 186.654L249.61 226.597ZM198.828 272.951L199.336 272.628L201.919 270.875L233.421 249.613C233.651 250.028 233.882 250.443 234.113 250.904C256.99 292 264.738 305.514 267.552 310.08C260.956 314.738 254.268 320.043 247.627 325.762L199.843 274.058L198.828 272.951ZM286.001 309.48C289.045 307.774 292.089 306.159 295.133 304.545L308.832 357.448L270.965 355.511L270.365 356.019C270.273 356.111 260.633 363.906 251.224 371.747C245.689 376.359 241.308 380.095 238.171 382.862C236.419 384.43 235.081 385.63 234.113 386.552L220.091 365.013C240.339 344.119 264.784 321.242 286.001 309.48ZM366.855 51.1446C369.438 50.3144 373.22 49.0229 378.017 47.2702C386.088 44.3645 397.25 40.1673 411.179 34.817H411.225L441.713 53.4507L381.707 79.6948L365.102 51.6981C365.656 51.5136 366.209 51.3291 366.855 51.1446ZM326.451 58.9855C327.374 57.7402 339.919 43.4881 349.19 33.0182L374.65 75.9588L351.45 93.8085L343.84 70.9314L323.776 62.906C325.298 60.646 326.221 59.2161 326.451 58.9855ZM321.424 66.4113L340.519 74.0217L349.328 100.589L376.771 79.5103L380 84.9529L392.592 106.17L392.822 106.585L403.016 113.641L409.288 130.246L411.548 133.936L331.294 160.825C320.317 149.433 310.585 137.994 304.681 128.262C300.899 121.99 296.056 116.962 290.752 112.857C298.131 101.557 313.49 78.4034 321.424 66.4113ZM165.343 122.958C179.042 125.403 188.405 124.527 193.155 120.283C205.793 109.075 235.865 100.635 239.14 99.7584C242.922 99.8968 283.972 102.111 301.129 130.384C306.941 139.932 316.35 151.093 326.958 162.255L322.577 163.731C314.459 154.829 307.448 146.112 302.836 138.456C283.741 107 239.002 105.847 237.111 105.847H236.834L236.557 105.939C235.173 106.308 202.657 114.979 188.589 127.432C184.945 130.661 176.459 131.26 164.513 129.185L165.343 122.958ZM179.687 324.378L129.136 285.22C143.942 263.403 156.58 244.585 156.764 244.401L171.431 222.677L173.046 185.409L161.238 152.062L163.913 133.244C177.381 135.596 186.606 134.674 191.31 130.523C203.948 119.315 234.02 110.874 237.295 109.998C241.077 110.136 282.127 112.35 299.285 140.623C303.897 148.188 310.769 156.813 318.749 165.622L276.869 189.837L253.254 159.857L198.736 153.215L197.721 151.97L182.086 149.156L180.794 156.305L193.801 158.658L214.049 183.241C210.359 184.763 206.07 186.424 202.057 187.9L199.751 188.73L200.95 190.852C201.088 191.128 215.894 217.88 231.484 245.923L198.736 268.016L196.153 269.768L192.602 272.167L244.629 328.437C230.746 340.613 217.37 354.128 205.608 366.581L179.687 324.378ZM236.096 416.255L210.682 374.883C212.758 372.669 214.925 370.409 217.139 368.103L250.994 420.176C249.103 421.329 247.258 422.482 245.413 423.589L236.096 416.255ZM257.497 433.09L248.872 426.31C250.302 425.434 251.732 424.558 253.208 423.635L253.669 424.327L257.497 433.09ZM254.545 417.962L236.419 390.104C240.478 385.906 259.757 369.902 272.349 359.708L309.939 361.6L315.013 381.063C294.765 393.378 273.271 406.477 254.545 417.962ZM301.729 301.086C303.62 300.117 305.511 299.149 307.402 298.226L316.166 299.241L346.053 331.988C344.439 343.104 342.502 355.188 341.626 359.109L316.489 357.817L301.729 301.086ZM327.65 400.943L317.549 362.015L393.145 365.843L388.763 387.567L392.038 403.11L358.968 392.271L329.495 403.572L327.65 400.943ZM360.674 448.588L331.894 407.169L359.014 396.745L392.961 407.861L397.02 427.187L360.674 448.588ZM400.848 425.111L393.514 390.196L418.697 394.762L422.064 414.18L400.848 425.111ZM393.33 385.906L397.342 366.073L422.111 367.319C421.326 369.763 420.588 373.407 419.85 378.896C419.251 383.416 418.836 387.89 418.651 390.473L393.33 385.906ZM422.71 391.58C423.402 381.986 424.878 371.562 426.354 367.549L433.503 367.918L428.798 393.978L422.71 391.58ZM439.314 398.129L432.719 395.546L437.654 368.149L450.384 368.795L452.413 369.164L439.314 398.129ZM456.611 369.902L465.881 371.562L449.185 402.003L443.189 399.651L456.611 369.902ZM452.183 455.091L434.103 458.366L427.046 417.824L444.803 420.591L467.127 435.212L452.183 455.091ZM469.064 431.522L446.279 416.624L426.262 413.488L423.264 396.238L451.076 407.215L470.217 372.346L491.065 376.128L469.064 431.522ZM492.633 372.162L451.03 364.644L425.893 363.352L425.431 362.245C424.97 362.43 424.509 362.706 424.048 363.26L394.298 361.738L393.975 361.692V361.738L381.245 361.092L385.996 332.819L381.891 332.127L377.048 360.908L345.823 359.339C346.745 355.419 347.991 347.532 350.297 331.619L350.435 330.651L322.438 299.979L400.433 309.111L471.186 355.65L497.199 360.631L492.633 372.162ZM504.117 343.242L498.767 356.71L472.8 351.683L402.739 305.56L395.959 294.49L356.477 287.341L344.9 281.253C364.503 273.504 380.046 269.445 387.149 270.737C393.007 271.798 419.02 286.834 441.99 300.117C454.028 307.082 465.143 313.493 475.198 319.12C478.335 322.625 480.825 325.393 482.347 327.099C485.299 330.42 493.417 336.232 504.117 343.242ZM478.012 309.942C474.276 307.82 470.494 305.698 466.758 303.577C450.891 286.142 428.983 262.342 412.286 245.277C413.716 244.585 415.1 243.985 416.437 243.386C437.562 265.294 464.728 295.182 478.012 309.942ZM549.549 138.133C554.668 142.653 560.111 147.45 565.646 152.431L528.378 193.988L510.252 176.784L549.549 138.133ZM579.806 248.459C573.994 252.057 569.612 254.64 567.583 255.747C566.614 256.116 561.818 256.808 540.555 252.657C526.995 250.028 510.483 246.153 494.247 242.371L498.998 215.989L494.893 215.251L490.142 241.449C455.319 233.285 433.641 228.35 426.677 229.687C424.048 230.195 419.712 231.809 414.224 234.207C413.993 234.3 413.762 234.392 413.532 234.53C412.471 233.469 411.456 232.409 410.441 231.394L411.548 230.748L462.514 201.368L466.112 181.581L488.666 162.025L579.806 248.459ZM487.467 154.783L473.538 139.148L495.677 118.346L507.484 137.441L487.467 154.783ZM403.2 181.166L429.398 164.792L427.184 161.287L400.986 177.66L403.2 181.166ZM280.789 123.835L277.745 120.975L259.111 140.716L238.679 133.059L237.203 136.934L260.264 145.559L280.789 123.835ZM427.184 161.287L400.986 177.66L403.2 181.166L429.398 164.792L427.184 161.287ZM277.791 120.975L259.157 140.716L238.679 133.059L237.203 136.934L260.264 145.559L280.789 123.789L277.791 120.975ZM427.184 161.287L400.986 177.66L403.2 181.166L429.398 164.792L427.184 161.287ZM277.791 120.975L259.157 140.716L238.679 133.059L237.203 136.934L260.264 145.559L280.789 123.789L277.791 120.975ZM427.184 161.287L400.986 177.66L403.2 181.166L429.398 164.792L427.184 161.287ZM277.791 120.975L259.157 140.716L238.679 133.059L237.203 136.934L260.264 145.559L280.789 123.789L277.791 120.975ZM427.184 161.287L400.986 177.66L403.2 181.166L429.398 164.792L427.184 161.287ZM277.791 120.975L259.157 140.716L238.679 133.059L237.203 136.934L260.264 145.559L280.789 123.789L277.791 120.975ZM427.184 161.287L400.986 177.66L403.2 181.166L429.398 164.792L427.184 161.287ZM277.791 120.975L259.157 140.716L238.679 133.059L237.203 136.934L260.264 145.559L280.789 123.789L277.791 120.975ZM427.184 161.287L400.986 177.66L403.2 181.166L429.398 164.792L427.184 161.287ZM277.791 120.975L259.157 140.716L238.679 133.059L237.203 136.934L260.264 145.559L280.789 123.789L277.791 120.975Z" fill="#234338"/>
<path d="M464.545 180.52L461.362 198.923L409.889 228.442L417.638 238.543L298.502 300.071L257.544 243.386L254.316 234.991L199.706 273.181L197.953 270.644L255.792 230.241L260.265 241.91L299.424 296.104L412.933 237.482L405.277 227.519L458.549 196.986L461.501 179.966L464.545 180.52Z" fill="#468671"/>
<path d="M464.174 177.937C466.085 177.937 467.633 176.388 467.633 174.478C467.633 172.567 466.085 171.019 464.174 171.019C462.264 171.019 460.715 172.567 460.715 174.478C460.715 176.388 462.264 177.937 464.174 177.937Z" fill="#CBEA7B"/>
<path d="M469.526 172.31C469.341 171.849 469.111 171.387 468.788 170.972C468.65 170.788 468.465 170.557 468.281 170.373C466.021 168.113 462.377 168.113 460.117 170.373C457.857 172.633 457.857 176.277 460.117 178.537C460.163 178.583 460.255 178.675 460.301 178.721C462.561 180.797 466.113 180.75 468.281 178.537C469.388 177.383 469.987 175.908 469.987 174.432C469.941 173.74 469.849 173.002 469.526 172.31ZM467.727 178.029C465.79 179.966 462.608 179.966 460.67 178.029C459.702 177.061 459.194 175.769 459.194 174.478C459.194 173.186 459.702 171.895 460.67 170.926C462.608 168.989 465.79 168.989 467.773 170.926C467.958 171.111 468.096 171.295 468.235 171.48C469.664 173.463 469.526 176.23 467.727 178.029Z" fill="#CBEA7B"/>
<path d="M198.045 229.964C190.573 229.964 184.531 236.006 184.531 243.478C184.531 250.95 198.045 264.925 198.045 265.017C198.045 264.925 211.559 250.95 211.559 243.478C211.606 236.006 205.517 229.964 198.045 229.964ZM198.138 249.013C194.955 249.013 192.372 246.43 192.372 243.247C192.372 240.065 194.955 237.482 198.138 237.482C201.32 237.482 203.903 240.065 203.903 243.247C203.903 246.43 201.366 249.013 198.138 249.013Z" fill="#CBEA7B"/>
<path d="M198.829 268.062C200.535 268.062 201.919 269.445 201.919 271.152C201.919 272.858 200.535 274.242 198.829 274.242C197.122 274.242 195.738 272.858 195.738 271.152C195.738 269.445 197.122 268.062 198.829 268.062Z" fill="#CBEA7B"/>
<path d="M743.497 39.6599C762.73 52.7128 779.289 63.8746 779.473 64.0129L787.545 69.4555V61.7068L783.025 58.6627C772.509 51.5597 760.424 43.3959 748.478 35.3243L759.41 27.7602L783.855 -9H776.152L754.843 23.194L742.851 31.4961C714.993 12.5395 689.21 -5.07953 686.858 -7.15507C686.95 -7.06283 687.089 -6.87834 687.273 -6.6016L681.784 -3.32685C682.338 -2.35827 682.799 -1.6203 731.505 31.4961C733.765 33.0182 735.979 34.5403 738.193 36.0623L704.615 79.3258L666.887 102.48C661.905 97.8673 657.247 93.624 653.096 89.8419C651.112 88.0431 649.221 86.2904 647.469 84.6761L682.568 54.2348L682.753 54.0965L699.081 30.0663L686.212 20.4266L683.998 23.3784L694.099 30.9426L686.397 42.2889L678.879 32.4647L675.973 34.6786L684.229 45.4714L680.032 51.6519L678.74 52.7589L668.27 35.3243L665.134 37.2154L675.927 55.2034L644.794 82.1855C641.749 79.3258 639.443 77.1119 638.567 76.005C632.017 67.6567 618.134 43.2114 617.996 42.9347L610.847 46.9935C611.447 48.0082 625.191 72.269 632.11 81.0785C634.093 83.6153 639.489 88.5043 647.607 95.9302C651.159 99.1588 655.264 102.895 659.645 106.954L623.715 129.047L617.996 136.288C606.557 117.746 598.348 104.601 597.564 104.048L595.35 107C595.257 106.954 595.211 106.907 595.165 106.861C596.318 108.337 604.62 121.621 615.552 139.378L600.746 158.15L587.647 163.823L589.123 167.19L595.949 164.239L568.783 198.739L573.81 202.705L608.356 158.888L622.562 152.708L623.346 152.2C633.724 169.174 645.347 188.223 655.217 204.412L638.705 208.701L565.877 259.252L569.521 264.51L596.457 245.83L615.828 278.716L626.021 298.549L589.861 304.868C588.616 301.778 585.433 293.937 582.112 286.188C573.118 265.202 571.735 264.972 570.443 264.695L569.797 268.292C569.474 268.246 569.29 268.108 569.244 268.062C571.135 269.814 579.16 288.079 586.171 305.468L561.68 309.757L562.325 313.355L587.278 309.019L590.461 326.408L609.74 340.844L592.444 406.293L595.995 407.215L613.107 342.597L662.782 362.337L661.536 369.348L616.52 464.316L619.841 465.884L665.088 370.501L666.287 363.767L690.409 373.361C670.669 403.987 642.349 454.123 640.735 456.982L643.917 458.781C644.425 457.859 694.976 368.38 708.305 354.635C701.986 366.258 697.189 375.805 694.468 382.862C675.281 413.488 651.251 456.014 649.775 458.643L652.957 460.441C653.28 459.842 673.528 424.004 691.793 394.162C691.47 397.622 691.055 401.173 690.64 404.679C688.795 420.453 687.042 435.304 693.085 443.975C698.481 451.77 722.281 478.291 732.243 489.268H741.883L742.713 488.53C742.344 488.115 706.322 448.496 699.911 439.271C695.667 433.183 697.328 419.161 698.896 405.601C699.403 401.265 699.911 396.791 700.28 392.502C700.695 387.244 707.475 373.453 716.1 357.679C716.93 356.71 717.622 355.972 718.222 355.419C726.754 347.855 758.948 318.797 782.148 296.52C783.486 299.656 784.362 302.055 784.593 303.53C785.515 308.281 779.196 335.125 774.123 356.664C763.561 401.727 758.948 423.635 762.361 430C763.468 432.076 766.328 436.78 770.202 443.099L740.73 474.14L743.405 476.677L772.186 446.328C776.66 453.523 782.102 462.286 787.729 471.234V455.691C784.178 450.018 780.857 444.667 778.043 440.101L787.729 429.908V424.558L776.06 436.872C772.924 431.753 770.618 427.878 769.649 426.126C769.326 425.249 768.727 421.052 772.37 402.28C774.723 390.334 778.089 375.759 781.456 361.461L787.775 362.614V358.878L782.333 357.91C784.408 349.054 786.253 341.167 787.775 334.295V285.819C787.452 286.142 787.13 286.419 786.807 286.742C786.253 285.542 785.654 284.297 785.054 283.006C785.977 282.037 786.899 281.161 787.729 280.284V275.026C786.438 276.41 784.962 277.932 783.348 279.546C774.446 261.236 761.577 237.667 755.535 226.689L777.951 208.978L778.643 209.716L778.735 209.808L787.683 216.634V212.022L781.18 207.087L780.811 206.718L787.637 201.322V196.663L785.746 198.139L772.047 181.12L787.637 173.648V169.589L768.265 178.906L741.375 196.894C739.946 194.034 738.516 191.174 737.04 188.315L781.41 156.997L787.637 155.014V143.852L780.211 132.829C782.656 131.445 785.146 130.061 787.637 128.678V124.48C784.501 126.187 781.318 127.986 778.136 129.738L755.028 95.4689L705.353 141.315C694.699 129.185 682.753 117.377 671.776 107.046L708.997 84.1688L743.497 39.6599ZM620.856 149.433L613.153 152.754L619.103 145.19C619.887 146.435 620.671 147.726 621.455 149.018L620.856 149.433ZM621.548 142.099L628.005 133.89L664.488 111.474C666.425 113.319 668.455 115.21 670.484 117.147L624.592 146.988C623.531 145.374 622.562 143.714 621.548 142.099ZM626.483 150.171L651.02 134.212C654.71 137.764 668.824 154.783 677.818 165.853L676.157 198.969L659 203.397C648.161 185.64 636.63 166.683 626.483 150.171ZM641.473 214.559L675.788 205.657L672.421 272.259L653.28 268.385L639.582 271.244L649.129 242.094L639.167 216.127L641.473 214.559ZM643.963 312.986L646.27 307.174L670.438 311.556L669.885 322.764L669.562 324.563L643.963 312.986ZM668.87 328.252L667.394 336.416L640.55 321.657L642.626 316.353L668.87 328.252ZM647.653 303.715L649.775 298.365C658.215 298.964 667.394 300.256 670.945 301.547L670.623 307.82L647.653 303.715ZM660.937 295.828C656.97 295.274 653.004 294.952 650.743 294.767L654.756 272.443L672.237 275.949L671.13 297.765C668.962 297.119 665.733 296.474 660.937 295.828ZM599.501 243.709L636.03 218.341L645.209 242.233L635.431 272.167L618.411 275.718L599.501 243.709ZM620.21 279.131L650.974 272.674L646.961 294.859L629.85 297.857L620.21 279.131ZM611.354 337.431L593.827 324.286L590.922 308.327L626.667 302.101L624.223 317.736L611.354 337.431ZM663.381 358.602L614.537 339.23L627.682 319.12L630.403 301.501L645.578 298.872L635.892 323.41L666.656 340.291L663.381 358.602ZM666.84 359.985L673.482 323.317L674.589 301.178L675.558 300.763C675.419 300.348 675.143 299.933 674.681 299.564L676.019 273.32L676.065 273.043H676.019L676.572 261.835L701.525 266.032L702.125 262.435L676.757 258.191L678.141 230.656C681.6 231.486 688.518 232.593 702.54 234.622L703.416 234.761L730.444 210.085L722.419 278.855L681.415 341.213L676.988 364.136L666.84 359.985ZM678.371 226.874L679.478 204.689L729.476 191.728C730.352 193.388 731.182 195.049 732.012 196.709L731.09 204.412L702.217 230.748C692.485 229.364 681.83 227.658 678.371 226.874ZM780.35 292.83C761.024 311.464 734.688 335.402 721.681 347.117C723.526 343.796 725.417 340.475 727.308 337.2C742.713 323.225 763.653 303.899 778.689 289.186C779.289 290.431 779.842 291.677 780.35 292.83ZM764.483 260.913C769.142 269.814 773.569 278.486 777.029 285.727C764.575 297.903 747.648 313.631 733.304 326.777C734.734 324.286 736.164 321.841 737.501 319.489C753.414 291.954 763.238 274.75 764.345 268.523C764.76 266.401 764.76 263.818 764.483 260.913ZM756.273 267.047C755.351 272.213 742.067 295.136 730.398 315.384C724.264 325.992 718.637 335.771 713.655 344.626C710.565 347.394 708.121 349.561 706.599 350.945C703.693 353.528 698.527 360.677 692.347 370.132L680.493 365.428L684.875 342.551L725.509 280.792L735.287 274.842L741.56 240.065L746.956 229.872C753.783 247.076 757.38 260.774 756.273 267.047ZM768.727 182.918L782.794 200.399L778.228 204.043L762.408 187.162L768.727 182.918ZM759.317 189.237L775.368 206.349L753.644 223.461C753.183 222.584 752.814 221.939 752.537 221.431C749.678 214.513 746.403 207.364 742.944 200.168L759.317 189.237ZM745.158 225.352L738.055 238.82L731.966 272.536L726.478 275.903L735.01 202.798C738.839 210.685 742.252 218.249 745.158 225.352ZM786.392 148.603L778.505 151.14L733.996 182.549C732.474 179.644 730.906 176.738 729.337 173.924C727.677 170.88 725.74 167.79 723.664 164.654C729.752 160.964 751.938 148.511 776.983 134.581L786.392 148.603ZM754.29 101.05L774.861 131.537C774.492 131.722 774.123 131.952 773.754 132.183C737.501 152.339 725.601 159.165 721.589 161.656C717.484 155.844 712.825 149.94 707.798 144.083L754.29 101.05ZM673.159 119.822C691.562 137.672 711.718 159.165 722.096 177.891C723.572 180.566 725.048 183.241 726.478 185.916L679.847 198.001L681.554 164.654L681.093 164.1C681.046 164.008 674.128 155.521 667.209 147.265C663.151 142.376 659.83 138.502 657.431 135.781C656.048 134.212 654.987 133.059 654.157 132.183L673.159 119.822Z" fill="#234338"/>
<path d="M131.581 208.517L127.937 203.259L101.001 221.939L81.6296 189.053L71.4364 169.22L107.597 162.901C108.842 165.991 112.025 173.786 115.346 181.581C124.34 202.567 125.723 202.798 127.015 203.074L127.66 199.477C127.937 199.523 128.122 199.615 128.168 199.661C126.231 197.77 118.251 179.598 111.287 162.255L135.778 157.966L135.132 154.368L110.18 158.704L106.997 141.315L87.764 126.879L105.06 61.43L101.509 60.5076L84.397 125.126L34.7224 105.385L35.9677 98.3747L81.0761 3.45325L77.7552 1.88506L32.5084 97.2677L31.3092 104.002L7.18683 94.4081C26.9275 63.8746 55.2933 13.6926 56.8615 10.8791L53.679 9.08027C53.1716 10.0027 2.57452 99.4817 -10.709 113.226C-4.39008 101.603 0.406731 92.0558 3.12799 84.999C22.3152 54.3732 46.3454 11.8477 47.8213 9.21865L44.6388 7.41984C44.316 8.01944 24.0679 43.8571 5.80314 73.6988C6.126 70.2396 6.54111 66.6881 6.95621 63.1827C8.80114 47.4086 10.5077 32.557 4.51169 23.8858C0.637344 18.3049 -12.6 3.17651 -23.4851 -9H-34.5546C-23.3006 3.5455 -6.46562 22.5482 -2.26842 28.5904C1.97491 34.6786 0.314484 48.7001 -1.25371 62.2603C-1.76106 66.5958 -2.26842 71.0698 -2.6374 75.3131C-3.05251 80.5712 -9.83261 94.362 -18.4576 110.136C-19.2879 111.105 -19.9797 111.843 -20.6254 112.396C-29.1582 119.96 -61.3522 149.018 -84.506 171.295C-85.8436 168.159 -86.7199 165.761 -86.9966 164.285C-87.9191 159.534 -81.6002 132.69 -76.5267 111.151C-65.9184 66.0885 -61.306 44.18 -64.7653 37.815C-65.8722 35.7395 -68.7319 31.0349 -72.6062 24.716L-43.1335 -6.32486L-45.8087 -8.86163L-74.5434 21.4874C-79.8937 12.8162 -86.7199 1.93119 -93.5 -8.86163V6.63575C-88.6571 14.3383 -84.0909 21.6719 -80.401 27.6679L-93.5 41.5048V46.809L-78.4177 30.8965C-75.2814 36.0162 -72.9752 39.8905 -72.0066 41.6432C-71.6838 42.5196 -71.0842 46.7168 -74.7279 65.4889C-77.034 77.4348 -80.4471 92.0097 -83.768 106.308L-93.5 104.555V108.291L-84.6444 109.905C-88.6109 126.833 -91.7012 140.208 -93.5 149.894V170.742C-92.762 172.679 -91.8396 174.939 -90.7326 177.43C-91.7012 178.352 -92.5775 179.275 -93.5 180.151V185.317C-92.1163 183.933 -90.6865 182.503 -89.1183 180.981C-88.5648 182.18 -87.9652 183.426 -87.3656 184.671C-89.6718 186.977 -91.7012 189.099 -93.4539 190.99V196.386C-91.5167 194.172 -88.8416 191.359 -85.6591 188.176C-76.7573 206.487 -63.8889 230.056 -57.8468 241.034L-80.2627 258.745L-80.9545 258.007L-81.0468 257.915L-93.5 248.459V253.072L-83.5835 260.59L-83.2145 260.959L-93.5 269.076V273.735L-88.1958 269.538L-74.4973 286.603L-93.5 295.736V299.794L-70.7152 288.863L-43.8254 270.875C-42.3956 273.735 -40.9657 276.595 -39.4898 279.454L-83.8603 310.772L-92.6237 313.585L-93.5 312.294V320.55L-92.5314 320.227L-82.6149 334.894C-86.2125 336.924 -89.8563 338.953 -93.5 340.982V345.18C-89.3028 342.874 -84.9672 340.429 -80.5855 338.031L-57.4317 372.3L-7.84932 326.454C2.80513 338.584 14.751 350.392 25.7283 360.723L-11.493 383.508L-45.9932 428.063C-65.2265 415.01 -81.7847 403.848 -81.9692 403.71L-93.5 395.961V403.71L-85.5668 409.06C-75.0507 416.163 -62.9665 424.281 -51.0206 432.399L-61.9518 439.963L-93.5 487.516V489.13H-86.9044L-57.3395 444.529L-45.3474 436.227C-17.3968 455.183 8.5244 472.941 10.6922 474.878C10.6461 474.832 10.4616 474.601 10.2771 474.324L15.7657 471.05C15.2123 470.081 14.751 469.343 -33.955 436.227C-36.1689 434.705 -38.429 433.183 -40.6429 431.661L-7.11134 388.351L30.6174 365.197C35.5987 369.809 40.2571 374.053 44.4082 377.835C46.3915 379.634 48.2826 381.386 50.0352 383.001L14.9355 413.442L14.751 413.58L-1.57657 437.61L11.2918 447.25L13.5057 444.298L3.45085 436.78L11.1534 425.434L18.6715 435.258L21.5773 433.044L13.2751 422.251L17.4723 416.071L18.7637 414.964L29.2337 432.399L32.3701 430.508L21.5773 412.519L52.7104 385.537C55.7545 388.397 58.0607 390.611 58.937 391.718C65.4865 400.066 79.3696 424.511 79.5079 424.788L86.657 420.729C86.0574 419.715 72.3127 395.454 65.3942 386.644C63.4109 384.108 58.0145 379.219 49.8969 371.793C46.3454 368.564 42.2865 364.828 37.8587 360.769L73.7887 338.676L79.5079 331.435C90.9465 349.976 99.1564 363.122 99.9405 363.675L102.154 360.723C102.247 360.769 102.293 360.815 102.339 360.862C101.186 359.386 92.8836 346.102 81.9986 328.345L96.8041 309.573L109.903 303.899L108.427 300.532L101.601 303.484L128.767 268.984L123.74 265.018L89.2399 308.881L75.034 315.061L74.2499 315.569C63.8722 298.595 52.2491 279.546 42.3788 263.357L58.8909 259.068L131.581 208.517ZM98.0033 224.014L61.4738 249.382L52.2491 225.444L62.0734 195.51L79.0928 191.959L98.0033 224.014ZM77.294 188.592L46.5299 195.049L50.5426 172.864L67.6543 169.866L77.294 188.592ZM53.4945 154.737L51.1883 160.549L27.0198 156.167L27.5733 144.959L27.8961 143.206L53.4945 154.737ZM28.6341 139.47L30.11 131.307L56.9537 146.02L54.8782 151.324L28.6341 139.47ZM49.8507 164.008L47.7291 169.358C39.2885 168.759 30.11 167.467 26.5585 166.176L26.8814 159.903L49.8507 164.008ZM36.5673 171.895C40.5339 172.402 44.5005 172.771 46.8066 172.956L42.7939 195.233L25.3132 191.728L26.4202 169.912C28.5418 170.557 31.7705 171.249 36.5673 171.895ZM86.1497 130.246L103.676 143.391L106.582 159.35L70.8368 165.576L73.2813 149.94L86.1497 130.246ZM34.1228 109.121L82.921 128.539L69.7759 148.603L67.0085 166.222L51.834 168.897L61.5199 144.359L30.7558 127.478L34.1228 109.121ZM30.6635 107.738L24.0218 144.406L22.9148 166.545L21.9462 166.96C22.1307 167.375 22.3613 167.744 22.8226 168.159L21.485 194.403L21.4389 194.68H21.485L20.9315 205.888L-4.0211 201.691L-4.6207 205.288L20.747 209.578L19.3633 237.113C15.9041 236.283 8.98563 235.176 -5.0358 233.147L-5.91215 233.008L-32.9403 257.684L-24.9149 188.914L16.0425 126.602L20.4703 103.679L30.6635 107.738ZM19.0866 240.849L17.9335 262.988L-32.064 275.949C-32.9403 274.288 -33.7705 272.628 -34.6007 270.968L-33.6783 263.265L-4.80518 236.929C5.01904 238.358 15.6735 240.065 19.0866 240.849ZM-82.8917 174.893C-63.5661 156.259 -37.2298 132.321 -24.223 120.606C-26.068 123.927 -27.959 127.248 -29.8501 130.523C-45.2552 144.498 -66.1951 163.823 -81.2312 178.537C-81.7847 177.245 -82.3382 176.046 -82.8917 174.893ZM-66.9792 206.81C-71.6376 197.908 -76.0655 189.237 -79.5247 181.996C-67.0714 169.773 -50.1442 154.045 -35.7999 140.9C-37.2298 143.391 -38.6596 145.835 -39.9972 148.188C-55.9096 175.723 -65.7339 192.881 -66.8408 199.154C-67.2559 201.322 -67.2559 203.904 -66.9792 206.81ZM-58.7693 200.676C-57.8468 195.51 -44.5633 172.587 -32.8942 152.339C-26.7598 141.73 -21.1328 131.952 -16.1515 123.097C-13.0612 120.329 -10.6167 118.162 -9.09464 116.778C-6.18888 114.195 -1.02309 107.046 5.15741 97.5906L17.0111 102.295L12.5832 125.218L-28.0513 186.977L-37.8294 192.927L-44.1021 227.704L-49.4985 237.897C-56.3247 220.601 -59.8762 206.902 -58.7693 200.676ZM-71.2225 284.804L-85.2901 267.278L-80.7239 263.68L-64.9036 280.561L-71.2225 284.804ZM-61.8134 278.486L-77.8643 261.374L-56.1403 244.262C-55.679 245.139 -55.31 245.784 -55.0333 246.292C-52.1737 253.21 -48.945 260.359 -45.4397 267.554L-61.8134 278.486ZM-47.6536 242.371L-40.5506 228.903L-34.4624 195.187L-28.9737 191.82L-37.5065 264.925C-41.3347 257.038 -44.7478 249.428 -47.6536 242.371ZM-88.8877 319.12L-80.9545 316.583L-36.4457 285.173C-34.9236 288.079 -33.3554 290.985 -31.7872 293.798C-30.1268 296.843 -28.1896 299.933 -26.1141 303.069C-32.2023 306.759 -54.3876 319.212 -79.4324 333.142L-88.8877 319.12ZM-56.8321 366.673L-77.3569 336.186C-76.9879 335.955 -76.6189 335.771 -76.2038 335.54C-39.9972 315.384 -28.0513 308.558 -24.0385 306.067C-19.9336 311.879 -15.2751 317.783 -10.2477 323.64L-56.8321 366.673ZM24.3446 347.901C5.89538 330.051 -14.2604 308.558 -24.592 289.832C-26.068 287.157 -27.5439 284.482 -28.9737 281.806L17.6107 269.722L15.9041 303.115L16.3653 303.669C16.4115 303.761 23.2838 312.248 30.2484 320.55C34.3072 325.439 37.6281 329.313 40.0726 332.035C41.4563 333.603 42.5172 334.756 43.3474 335.632L24.3446 347.901ZM76.6022 318.29L84.3047 314.969L78.3087 322.533C77.5246 321.288 76.7405 319.996 75.9564 318.705L76.6022 318.29ZM75.9564 325.577L69.4992 333.787L33.0619 356.203C31.1247 354.358 29.0953 352.467 27.0659 350.53L72.9584 320.688C73.927 322.349 74.9417 324.009 75.9564 325.577ZM71.0213 317.552L46.4837 333.51C42.7939 329.959 28.6802 312.94 19.6862 301.87L21.3466 268.754L38.5045 264.28C49.3434 282.083 60.8742 301.04 71.0213 317.552ZM55.9851 253.118L21.6695 262.02L25.0365 195.418L44.1776 199.292L57.8762 196.433L48.3287 225.582L58.2913 251.55L55.9851 253.118Z" fill="#234338"/>
</g>
<defs>
<clipPath id="clip0_74_764">
<rect x="0.5" width="693.5" height="480" rx="10" fill="white"/>
</clipPath>
</defs>
</svg>
